<svg width="948" height="867" viewBox="0 0 948 867" fill="none" xmlns="http://www.w3.org/2000/svg">
<path d="M390.256 781.664C388.383 781.664 386.861 780.285 386.843 778.57L386.546 739.555C386.546 738.722 386.896 737.936 387.526 737.343C388.156 736.75 389.031 736.414 389.923 736.414L432.501 736.141H432.519C434.391 736.141 435.914 737.52 435.932 739.235C435.932 740.95 434.426 742.36 432.554 742.376L393.371 742.617L393.651 778.506C393.651 780.221 392.146 781.632 390.273 781.648H390.256V781.664Z" fill="white" fill-opacity="0.1"/>
<path d="M299.482 399.755C298.047 399.755 296.717 398.922 296.244 397.607C295.649 395.972 296.629 394.209 298.415 393.664L309.16 390.426L305.625 380.585C305.03 378.95 306.01 377.186 307.795 376.641C309.58 376.096 311.505 376.994 312.1 378.629L316.702 391.436C317.297 393.071 316.317 394.834 314.532 395.379L300.55 399.595C300.2 399.707 299.832 399.755 299.482 399.755Z" fill="white" fill-opacity="0.1"/>
<path d="M188.811 781.808C188.531 781.808 188.251 781.776 187.971 781.712C186.151 781.279 185.049 779.58 185.521 777.913L189.179 764.865C189.406 764.064 189.966 763.375 190.736 762.958C191.524 762.541 192.451 762.413 193.326 762.621L207.571 765.971C209.391 766.404 210.494 768.103 210.021 769.77C209.549 771.437 207.694 772.447 205.874 772.014L194.919 769.434L192.101 779.468C191.699 780.878 190.316 781.808 188.811 781.808Z" fill="white" fill-opacity="0.1"/>
<path d="M627.139 811.061C625.512 811.061 624.077 809.987 623.779 808.464L619.719 786.825L596.094 790.544C594.239 790.848 592.471 789.694 592.156 787.995C591.841 786.296 593.084 784.677 594.939 784.389L621.924 780.141C623.779 779.836 625.547 780.991 625.862 782.69L630.499 807.39C630.814 809.09 629.572 810.708 627.717 810.997C627.524 811.029 627.332 811.045 627.139 811.045V811.061Z" fill="white" fill-opacity="0.1"/>
<path d="M800.461 496.234C798.799 496.234 797.346 495.128 797.101 493.573L795.491 483.78L784.799 485.254C782.944 485.511 781.211 484.341 780.931 482.642C780.651 480.942 781.929 479.356 783.784 479.099L797.854 477.16C799.726 476.887 801.441 478.073 801.721 479.772L803.839 492.66C804.119 494.359 802.841 495.946 800.986 496.202C800.811 496.234 800.636 496.234 800.479 496.234H800.461Z" fill="white" fill-opacity="0.1"/>
<path d="M103.83 355.611C102.29 355.611 100.89 354.649 100.522 353.223L98.3348 344.92L89.2697 346.923C87.4497 347.324 85.5946 346.298 85.1571 344.615C84.7196 342.932 85.8396 341.249 87.6772 340.848L100.05 338.124C101.87 337.723 103.725 338.749 104.162 340.432L107.137 351.764C107.575 353.447 106.455 355.13 104.617 355.531C104.355 355.595 104.075 355.611 103.812 355.611H103.83Z" fill="white" fill-opacity="0.1"/>
<path d="M691.68 42.2269C690.105 42.2269 688.705 41.2331 688.355 39.7745L684.225 22.3348C684.033 21.5334 684.208 20.6839 684.698 19.9786C685.188 19.2893 685.958 18.7924 686.833 18.6161L705.873 14.8332C707.71 14.4646 709.53 15.5385 709.915 17.2216C710.318 18.9046 709.145 20.5717 707.308 20.9243L691.593 24.05L695.005 38.4441C695.408 40.1271 694.235 41.7941 692.398 42.1628C692.153 42.2109 691.908 42.2269 691.663 42.2269H691.68Z" fill="white" fill-opacity="0.1"/>
<path d="M503.22 448.163C503.22 448.163 503.15 448.163 503.132 448.163C501.242 448.115 499.772 446.688 499.825 444.957L500.105 435.468L489.744 435.211C487.854 435.163 486.384 433.737 486.437 432.006C486.489 430.291 488.064 428.848 489.937 428.976L503.692 429.313C505.582 429.361 507.052 430.787 507 432.519L506.632 445.117C506.58 446.817 505.075 448.163 503.237 448.163H503.22Z" fill="white" fill-opacity="0.1"/>
<path d="M121.978 504.329C121.611 504.329 121.226 504.265 120.841 504.152C119.073 503.575 118.128 501.796 118.758 500.177L129.836 471.389C130.133 470.604 130.763 469.962 131.586 469.61C132.408 469.257 133.336 469.209 134.193 469.481L165.624 479.628C167.391 480.205 168.336 481.984 167.706 483.603C167.076 485.238 165.134 486.088 163.366 485.511L135.156 476.406L125.216 502.245C124.726 503.527 123.413 504.329 121.996 504.329H121.978Z" fill="white" fill-opacity="0.1"/>
<path d="M429.386 93.1833C429.159 93.1833 428.914 93.1673 428.686 93.1192C426.849 92.7666 425.676 91.1156 426.061 89.4165L435.459 48.6065L390.903 39.9989C389.066 39.6463 387.893 37.9953 388.278 36.2962C388.663 34.6131 390.466 33.5392 392.321 33.8918L440.201 43.1406C441.076 43.3169 441.864 43.7978 442.354 44.487C442.844 45.1763 443.019 46.0258 442.826 46.8273L432.729 90.6828C432.396 92.1575 430.979 93.1513 429.404 93.1513L429.386 93.1833Z" fill="white" fill-opacity="0.1"/>
<path d="M879.282 346.571C879.09 346.571 878.88 346.571 878.687 346.523L864.529 344.231C863.637 344.086 862.849 343.621 862.324 342.948C861.799 342.275 861.607 341.425 861.764 340.624L864.267 327.656C864.599 325.957 866.349 324.835 868.222 325.124C870.077 325.428 871.319 327.047 870.987 328.746L869.079 338.636L879.877 340.384C881.732 340.688 882.957 342.307 882.642 344.006C882.345 345.513 880.91 346.587 879.282 346.587V346.571Z" fill="white" fill-opacity="0.1"/>
<path d="M379.756 378.998C379.126 378.998 378.496 378.837 377.918 378.501L370.761 374.285C369.186 373.356 368.713 371.432 369.728 369.973C370.743 368.515 372.861 368.098 374.436 369.028L378.723 371.544L381.488 367.617C382.503 366.175 384.603 365.742 386.196 366.671C387.771 367.601 388.243 369.525 387.228 370.983L382.626 377.539C381.978 378.469 380.876 378.966 379.756 378.966V378.998Z" fill="white" fill-opacity="0.1"/>
<path d="M851.247 205.403C850.477 205.403 849.706 205.162 849.076 204.682C847.624 203.592 847.414 201.62 848.622 200.29L855.622 192.516C856.199 191.874 857.022 191.474 857.932 191.394C858.842 191.313 859.734 191.57 860.417 192.099L868.904 198.526C870.357 199.632 870.567 201.588 869.359 202.918C868.169 204.249 866.017 204.425 864.564 203.335L858.702 198.895L853.872 204.265C853.189 205.018 852.227 205.403 851.247 205.403Z" fill="white" fill-opacity="0.1"/>
<path d="M232.369 593.242C231.406 593.242 230.444 592.873 229.761 592.136C228.554 590.822 228.729 588.85 230.164 587.744L235.134 583.897L230.934 579.345C229.726 578.03 229.901 576.059 231.336 574.953C232.772 573.847 234.924 574.007 236.132 575.321L242.537 582.262C243.744 583.576 243.569 585.548 242.134 586.654L234.557 592.521C233.909 593.018 233.139 593.258 232.352 593.258L232.369 593.242Z" fill="white" fill-opacity="0.1"/>
<path d="M880.245 412.242C880.245 412.242 880.122 412.242 880.07 412.242C878.197 412.146 876.745 410.687 876.85 408.956L877.13 404.131L871.862 403.875C869.99 403.778 868.537 402.32 868.642 400.589C868.747 398.874 870.357 397.543 872.23 397.639L880.892 398.056C882.765 398.152 884.217 399.611 884.112 401.342L883.657 409.276C883.57 410.943 882.065 412.226 880.262 412.226L880.245 412.242Z" fill="white" fill-opacity="0.1"/>
<path d="M874.82 656.429C874.137 656.429 873.437 656.236 872.825 655.835L847.274 638.941C846.539 638.46 846.049 637.723 845.909 636.905C845.769 636.088 845.979 635.254 846.504 634.581L864.95 611.178C866.052 609.784 868.187 609.463 869.71 610.473C871.232 611.483 871.582 613.439 870.48 614.833L854.03 635.703L876.815 650.77C878.337 651.78 878.687 653.736 877.585 655.13C876.92 655.98 875.87 656.429 874.82 656.429Z" fill="white" fill-opacity="0.1"/>
<path d="M488.03 571.795C487.173 571.795 486.298 571.491 485.633 570.898C484.303 569.695 484.285 567.708 485.598 566.49L502.835 550.493C504.148 549.258 506.318 549.258 507.648 550.46L525.113 566.249C526.461 567.467 526.461 569.439 525.148 570.657C523.818 571.875 521.665 571.891 520.335 570.689L505.285 557.08L490.428 570.865C489.763 571.491 488.888 571.795 488.013 571.795H488.03Z" fill="white" fill-opacity="0.1"/>
<path d="M66.6418 132.054C66.2043 132.054 65.7668 131.974 65.3293 131.813C63.5968 131.156 62.7742 129.329 63.4917 127.726L69.8443 113.749L54.5841 107.93C52.8516 107.273 52.0291 105.446 52.7466 103.843C53.4641 102.256 55.4592 101.502 57.2092 102.16L75.6019 109.18C77.3344 109.838 78.1569 111.665 77.4394 113.268L69.7743 130.13C69.2318 131.333 67.9543 132.054 66.6243 132.054H66.6418Z" fill="white" fill-opacity="0.1"/>
<path d="M315.688 73.8844C314.55 73.8844 313.43 73.3555 312.783 72.3937C311.803 70.9191 312.293 69.0116 313.903 68.0979L345.718 50.1614L326.135 21.0206C325.155 19.5459 325.645 17.6385 327.255 16.7248C328.865 15.8111 330.948 16.276 331.945 17.7507L353.313 49.5523C354.293 51.027 353.803 52.9344 352.193 53.8481L317.473 73.4196C316.913 73.7402 316.3 73.8844 315.688 73.8844Z" fill="white" fill-opacity="0.1"/>
<path d="M437.384 421.154C436.054 421.154 434.777 420.433 434.234 419.23L429.667 409.132C428.949 407.545 429.772 405.718 431.504 405.061L442.529 400.877C444.262 400.22 446.257 400.973 446.974 402.56C447.692 404.147 446.869 405.974 445.137 406.632L437.244 409.629L440.517 416.858C441.234 418.445 440.412 420.272 438.679 420.93C438.259 421.09 437.804 421.17 437.384 421.17V421.154Z" fill="white" fill-opacity="0.1"/>
<path d="M766.546 27.8489C765.549 27.8489 764.569 27.4481 763.904 26.6948L755.749 17.5262C754.559 16.1957 754.786 14.2242 756.239 13.1342C757.691 12.0442 759.844 12.2526 761.034 13.583L767.036 20.3473L774.421 14.8493C775.874 13.7593 778.026 13.9677 779.216 15.2981C780.406 16.6285 780.179 18.6001 778.726 19.6901L768.716 27.1596C768.086 27.6245 767.316 27.8649 766.564 27.8649L766.546 27.8489Z" fill="white" fill-opacity="0.1"/>
<path d="M827.621 811.622C825.836 811.622 824.349 810.356 824.226 808.705C824.104 806.99 825.521 805.499 827.411 805.387L848.866 804.104L847.466 784.453C847.344 782.738 848.761 781.247 850.651 781.135C852.489 781.007 854.151 782.321 854.274 784.052L855.901 806.813C855.954 807.647 855.657 808.448 855.061 809.073C854.466 809.699 853.626 810.067 852.716 810.131L827.866 811.622C827.866 811.622 827.709 811.622 827.639 811.622H827.621Z" fill="white" fill-opacity="0.1"/>
<path d="M730.88 706.167C730.302 706.167 729.725 706.039 729.2 705.75C727.572 704.901 726.995 702.993 727.922 701.502L733.277 692.895L723.88 687.99C722.252 687.14 721.675 685.233 722.602 683.742C723.53 682.236 725.612 681.723 727.24 682.572L739.595 689.016C741.222 689.865 741.8 691.773 740.872 693.264L733.837 704.58C733.207 705.59 732.052 706.151 730.88 706.151V706.167Z" fill="white" fill-opacity="0.1"/>
<path d="M777.186 103.538C776.293 103.538 775.401 103.218 774.736 102.576L740.523 69.9893C739.21 68.739 739.263 66.7675 740.61 65.5813C741.975 64.3952 744.128 64.4272 745.423 65.6615L777.273 96.0045L810.401 66.8316C811.766 65.6454 813.919 65.6775 815.214 66.9117C816.526 68.162 816.474 70.1336 815.126 71.3197L779.548 102.657C778.883 103.234 778.043 103.522 777.186 103.522V103.538Z" fill="white" fill-opacity="0.1"/>
<path d="M853.312 44.8718C853.05 44.8718 852.77 44.8398 852.49 44.7757L827.412 39.1334C825.592 38.7167 824.472 37.0336 824.909 35.3666L831.069 12.3969C831.524 10.7299 833.362 9.68804 835.182 10.1048C837.002 10.5215 838.122 12.2046 837.684 13.8716L832.347 33.8118L854.099 38.7006C855.92 39.1174 857.04 40.8004 856.602 42.4675C856.217 43.8941 854.835 44.8398 853.294 44.8398L853.312 44.8718Z" fill="white" fill-opacity="0.1"/>
<path d="M853.609 146.192C852.087 146.192 850.704 145.246 850.319 143.835L846.592 130.371C846.137 128.704 847.239 127.005 849.059 126.572C850.897 126.155 852.734 127.165 853.207 128.832L856.094 139.283L867.504 136.638C869.342 136.222 871.179 137.231 871.652 138.898C872.107 140.565 871.005 142.264 869.185 142.697L854.484 146.111C854.204 146.176 853.924 146.208 853.644 146.208L853.609 146.192Z" fill="white" fill-opacity="0.1"/>
<path d="M461.236 685.009C459.626 685.009 458.209 683.967 457.894 682.476L449.651 643.077C449.476 642.259 449.669 641.426 450.176 640.736C450.684 640.047 451.471 639.582 452.346 639.422L495.362 631.872C497.234 631.552 499.002 632.658 499.352 634.341C499.702 636.04 498.494 637.675 496.657 637.995L456.984 644.968L464.596 681.306C464.946 683.005 463.739 684.64 461.901 684.961C461.691 684.993 461.464 685.025 461.254 685.025L461.236 685.009Z" fill="white" fill-opacity="0.1"/>
<path d="M268.35 279.153C266.897 279.153 265.55 278.287 265.095 276.941C264.535 275.29 265.55 273.542 267.352 273.045L275.385 270.785L272.917 263.428C272.357 261.777 273.372 260.03 275.175 259.533C276.96 259.02 278.885 259.95 279.427 261.601L282.91 271.939C283.172 272.725 283.085 273.59 282.665 274.312C282.245 275.049 281.527 275.594 280.652 275.835L269.365 279.008C269.032 279.104 268.7 279.153 268.367 279.153H268.35Z" fill="white" fill-opacity="0.1"/>
<path d="M304.803 861.216H304.75L277.712 860.799C275.822 860.767 274.335 859.357 274.37 857.625L274.825 832.861C274.86 831.161 276.382 829.799 278.237 829.799H278.29C280.162 829.831 281.667 831.242 281.632 832.973L281.23 854.628L304.855 854.997C306.728 855.029 308.233 856.439 308.198 858.17C308.163 859.87 306.64 861.232 304.785 861.232L304.803 861.216Z" fill="white" fill-opacity="0.1"/>
<path d="M908.77 680.841C907.318 680.841 905.97 679.976 905.515 678.645C904.955 676.994 905.953 675.247 907.755 674.734L931.153 668.066L923.873 646.635C923.313 644.984 924.31 643.237 926.113 642.724C927.898 642.211 929.823 643.125 930.383 644.776L938.678 669.188C939.238 670.839 938.24 672.586 936.438 673.099L909.785 680.697C909.453 680.793 909.103 680.841 908.77 680.841Z" fill="white" fill-opacity="0.1"/>
<path d="M561.881 325.108C561.706 325.108 561.514 325.108 561.339 325.076L551.521 323.633C550.628 323.505 549.823 323.056 549.298 322.383C548.773 321.71 548.546 320.876 548.703 320.059L550.278 311.067C550.576 309.367 552.326 308.197 554.181 308.486C556.036 308.758 557.296 310.361 556.998 312.06L555.966 317.975L562.424 318.921C564.279 319.193 565.539 320.796 565.241 322.495C564.979 324.034 563.526 325.124 561.881 325.124V325.108Z" fill="white" fill-opacity="0.1"/>
<path d="M860.82 866.922C859.665 866.922 858.545 866.393 857.897 865.416L852.577 857.401C851.597 855.926 852.105 854.003 853.715 853.121C855.325 852.224 857.425 852.705 858.387 854.163L861.94 859.517L867.785 856.263C869.395 855.365 871.495 855.83 872.457 857.305C873.437 858.78 872.93 860.703 871.32 861.585L862.57 866.458C862.01 866.762 861.397 866.906 860.802 866.906L860.82 866.922Z" fill="white" fill-opacity="0.1"/>
<path d="M320.553 337.707C319.03 337.707 317.648 336.761 317.263 335.35L310.683 311.611C310.21 309.944 311.313 308.245 313.15 307.813C314.988 307.38 316.825 308.406 317.298 310.073L323.038 330.798L345.666 325.541C347.503 325.124 349.341 326.134 349.813 327.801C350.268 329.468 349.183 331.167 347.346 331.6L321.428 337.627C321.148 337.691 320.868 337.723 320.588 337.723L320.553 337.707Z" fill="white" fill-opacity="0.1"/>
<path d="M777.273 797.068C775.716 797.068 774.298 796.074 773.948 794.615L771.796 785.639L761.996 787.61C760.158 787.979 758.338 786.921 757.935 785.238C757.533 783.555 758.688 781.888 760.525 781.519L773.651 778.875C775.471 778.506 777.308 779.564 777.711 781.247L780.598 793.269C781.001 794.952 779.846 796.619 778.008 796.987C777.763 797.036 777.518 797.068 777.273 797.068Z" fill="white" fill-opacity="0.1"/>
<path d="M392.216 448.628C391.971 448.628 391.726 448.612 391.481 448.548L377.568 445.727C375.731 445.358 374.576 443.691 374.978 442.008L378.058 429.265C378.461 427.582 380.264 426.508 382.119 426.892C383.956 427.261 385.111 428.928 384.709 430.611L382.364 440.309L392.951 442.457C394.789 442.825 395.944 444.492 395.541 446.175C395.191 447.634 393.774 448.628 392.216 448.628Z" fill="white" fill-opacity="0.1"/>
<path d="M334.483 799.777C333.03 799.777 331.683 798.927 331.228 797.581L322.6 772.287L294.985 780.189C293.2 780.702 291.275 779.788 290.715 778.137C290.155 776.486 291.152 774.739 292.955 774.226L323.825 765.394C325.61 764.881 327.535 765.795 328.095 767.446L337.738 795.721C338.298 797.372 337.3 799.119 335.498 799.632C335.165 799.728 334.815 799.777 334.483 799.777Z" fill="white" fill-opacity="0.1"/>
<path d="M15.4014 350.402C14.1589 350.402 12.9689 349.777 12.3564 348.703C11.4989 347.164 12.1639 345.288 13.8439 344.503L19.584 341.826L16.6614 336.569C15.8039 335.03 16.4689 333.154 18.1489 332.369C19.829 331.584 21.8765 332.193 22.734 333.732L27.1966 341.762C28.0541 343.301 27.3891 345.176 25.709 345.962L16.9414 350.049C16.4514 350.273 15.9089 350.386 15.4014 350.386V350.402Z" fill="white" fill-opacity="0.1"/>
<path d="M458.034 516.11C456.914 516.11 455.812 515.597 455.164 514.668L439.186 491.666C438.171 490.207 438.644 488.284 440.236 487.354L465.349 472.72C466.942 471.79 469.042 472.223 470.057 473.681C471.072 475.14 470.599 477.063 469.007 477.993L446.764 490.945L460.904 511.318C461.919 512.776 461.447 514.7 459.854 515.629C459.294 515.966 458.647 516.11 458.034 516.11Z" fill="white" fill-opacity="0.1"/>
<path d="M640.912 115.592C640.51 115.592 640.089 115.528 639.687 115.384C637.937 114.758 637.062 112.947 637.744 111.344L653.46 74.1568L612.859 59.7627C611.109 59.1376 610.234 57.3263 610.917 55.7234C611.599 54.1205 613.577 53.319 615.327 53.9441L659.095 69.4603C660.845 70.0854 661.72 71.8967 661.037 73.4996L644.097 113.588C643.572 114.823 642.277 115.592 640.912 115.592Z" fill="white" fill-opacity="0.1"/>
<path d="M930.803 381.258C930.488 381.258 930.172 381.226 929.875 381.145C928.072 380.681 927.023 378.949 927.53 377.298L928.965 372.682L923.925 371.368C922.122 370.903 921.072 369.172 921.58 367.521C922.087 365.87 923.977 364.908 925.78 365.373L934.093 367.537C934.968 367.761 935.703 368.29 936.14 369.011C936.578 369.733 936.683 370.582 936.438 371.384L934.075 378.998C933.655 380.376 932.29 381.258 930.803 381.274V381.258Z" fill="white" fill-opacity="0.1"/>
<path d="M266.022 744.781C265.462 744.781 264.902 744.653 264.377 744.396L246.229 735.26C244.584 734.426 243.972 732.535 244.882 731.028C245.792 729.521 247.857 728.96 249.502 729.794L264.657 737.424L272.987 723.542C273.897 722.036 275.962 721.491 277.607 722.308C279.252 723.142 279.864 725.033 278.954 726.54L268.979 743.162C268.367 744.188 267.194 744.781 265.987 744.781H266.022Z" fill="white" fill-opacity="0.1"/>
<path d="M8.57636 473.617C7.68385 473.617 6.79134 473.297 6.12633 472.655C4.81381 471.421 4.86631 469.434 6.21383 468.247L10.5364 464.449L6.38883 460.489C5.07631 459.255 5.12882 457.268 6.47633 456.081C7.82385 454.879 9.99387 454.927 11.2889 456.162L17.799 462.365C18.429 462.958 18.7615 463.759 18.744 464.593C18.7265 465.426 18.359 466.212 17.694 466.789L10.9214 472.752C10.2564 473.329 9.41637 473.617 8.55886 473.617H8.57636Z" fill="white" fill-opacity="0.1"/>
<path d="M750.235 431.525C749.465 431.525 748.73 431.285 748.117 430.852L727.747 416.009C726.277 414.935 726.032 412.979 727.205 411.617C728.377 410.27 730.512 410.046 732 411.12L749.71 424.007L763.78 407.786C764.952 406.439 767.087 406.215 768.575 407.289C770.045 408.363 770.29 410.318 769.117 411.681L752.93 430.339C752.37 430.98 751.547 431.397 750.655 431.493C750.532 431.493 750.392 431.509 750.27 431.509L750.235 431.525Z" fill="white" fill-opacity="0.1"/>
<path d="M250.884 449.061C250.254 449.061 249.607 448.901 249.029 448.564L221.851 432.375C220.276 431.429 219.821 429.505 220.854 428.063L238.529 403.17C239.562 401.727 241.662 401.31 243.237 402.256C244.812 403.202 245.267 405.125 244.234 406.568L228.414 428.848L252.739 443.338C254.314 444.284 254.769 446.208 253.737 447.65C253.089 448.564 251.987 449.061 250.884 449.061Z" fill="white" fill-opacity="0.1"/>
<path d="M61.48 223.916C61.06 223.916 60.64 223.852 60.22 223.692L28.7196 212.199C27.8796 211.895 27.2146 211.302 26.8471 210.532C26.4971 209.779 26.4796 208.913 26.8121 208.144L39.3597 179.308C40.0597 177.705 42.0372 176.919 43.7873 177.56C45.5373 178.202 46.3948 180.013 45.6948 181.616L34.4072 207.567L62.74 217.906C64.49 218.547 65.3475 220.358 64.6475 221.961C64.1225 223.179 62.8275 223.932 61.48 223.932V223.916Z" fill="white" fill-opacity="0.1"/>
<path d="M281.895 33.4912C281.387 33.4912 280.88 33.3951 280.39 33.1706C278.71 32.4013 278.01 30.5419 278.85 28.9871L282.805 21.6618L274.807 18.0392C273.127 17.2698 272.427 15.4104 273.267 13.8556C274.107 12.3168 276.137 11.6757 277.835 12.4451L288.877 17.4461C290.557 18.2155 291.257 20.0749 290.417 21.6297L284.957 31.7441C284.362 32.8501 283.155 33.4752 281.895 33.4752V33.4912Z" fill="white" fill-opacity="0.1"/>
<path d="M191.751 862.274C191.349 862.274 190.929 862.21 190.509 862.066C188.759 861.441 187.884 859.629 188.566 858.026L194.184 844.85L179.799 839.705C178.049 839.08 177.174 837.269 177.856 835.666C178.539 834.063 180.499 833.261 182.266 833.887L199.819 840.17C201.569 840.795 202.444 842.606 201.761 844.209L194.901 860.286C194.376 861.521 193.081 862.274 191.734 862.274H191.751Z" fill="white" fill-opacity="0.1"/>
<path d="M921.405 862.755C920.722 862.755 920.022 862.563 919.427 862.162C917.905 861.152 917.554 859.212 918.657 857.802L922.647 852.737L917.117 849.082C915.594 848.072 915.244 846.133 916.347 844.722C917.449 843.328 919.567 843.007 921.107 844.017L929.402 849.483C930.925 850.493 931.275 852.432 930.172 853.843L924.205 861.44C923.54 862.29 922.49 862.739 921.44 862.739L921.405 862.755Z" fill="white" fill-opacity="0.1"/>
<path d="M935.756 610.57C934.776 610.57 933.796 610.185 933.131 609.432L912.078 585.965C910.888 584.635 911.098 582.663 912.55 581.573L938.171 562.29C939.623 561.2 941.776 561.392 942.966 562.723C944.156 564.053 943.946 566.025 942.493 567.115L919.498 584.426L938.398 605.488C939.588 606.819 939.378 608.79 937.926 609.88C937.296 610.361 936.526 610.586 935.773 610.586L935.756 610.57Z" fill="white" fill-opacity="0.1"/>
<path d="M239.509 674.574C238.196 674.574 236.936 673.868 236.376 672.698L229.814 658.817C229.061 657.23 229.866 655.403 231.581 654.714L246.737 648.703C248.452 648.013 250.464 648.751 251.217 650.322C251.969 651.909 251.164 653.736 249.449 654.425L237.426 659.202L242.641 670.214C243.394 671.801 242.589 673.628 240.874 674.317C240.436 674.494 239.981 674.574 239.526 674.574H239.509Z" fill="white" fill-opacity="0.1"/>
<path d="M760.946 594.621C760.228 594.621 759.511 594.412 758.898 593.995C757.393 592.954 757.096 590.998 758.233 589.62L763.641 583.064C764.778 581.685 766.913 581.413 768.418 582.455L775.576 587.408C777.081 588.449 777.378 590.405 776.241 591.783C775.103 593.162 772.968 593.434 771.463 592.393L767.018 589.315L763.658 593.386C762.993 594.204 761.961 594.621 760.928 594.621H760.946Z" fill="white" fill-opacity="0.1"/>
<path d="M40.5488 509.522C39.8313 509.522 39.0963 509.314 38.4838 508.881C36.9962 507.839 36.6987 505.868 37.8538 504.505L44.5563 496.475C45.0988 495.817 45.9214 495.385 46.8139 495.272C47.7064 495.16 48.6164 495.385 49.3339 495.881L58.1015 502.037C59.589 503.079 59.8865 505.05 58.7315 506.413C57.594 507.775 55.459 508.048 53.954 506.99L47.8989 502.742L43.2613 508.304C42.5963 509.105 41.5813 509.522 40.5488 509.522Z" fill="white" fill-opacity="0.1"/>
<path d="M928.388 172.543C927.408 172.543 926.446 172.159 925.781 171.421L918.973 163.984C917.765 162.669 917.958 160.698 919.393 159.592L927.513 153.357C928.948 152.251 931.101 152.427 932.308 153.741C933.516 155.056 933.323 157.027 931.888 158.133L926.376 162.365L930.996 167.414C932.203 168.728 932.011 170.7 930.576 171.806C929.946 172.303 929.158 172.527 928.388 172.527V172.543Z" fill="white" fill-opacity="0.1"/>
<path d="M155.403 40.0951C155.018 40.0951 154.633 40.031 154.266 39.9188C152.498 39.3417 151.571 37.5625 152.201 35.9276L155.858 26.5345L145.603 23.1844C143.836 22.6074 142.908 20.8282 143.538 19.1932C144.168 17.5743 146.111 16.7247 147.896 17.3018L161.354 21.6937C162.211 21.9662 162.894 22.5433 163.279 23.2966C163.664 24.05 163.716 24.8996 163.401 25.685L158.606 38.0113C158.116 39.2937 156.804 40.0791 155.403 40.0791V40.0951Z" fill="white" fill-opacity="0.1"/>
<path d="M168.126 207.086C167.951 207.086 167.776 207.086 167.601 207.054L130.36 201.668C128.505 201.396 127.228 199.793 127.525 198.094C127.823 196.394 129.573 195.24 131.428 195.497L165.291 200.402L170.646 169.369C170.943 167.67 172.658 166.516 174.549 166.773C176.404 167.045 177.681 168.648 177.384 170.347L171.503 204.457C171.363 205.275 170.873 206.012 170.138 206.493C169.561 206.877 168.843 207.086 168.143 207.086H168.126Z" fill="white" fill-opacity="0.1"/>
<path d="M925.378 319.85C924.835 319.85 924.275 319.722 923.75 319.466L903.24 309.255C901.595 308.438 900.983 306.53 901.875 305.024C902.768 303.517 904.85 302.956 906.495 303.773L924.013 312.493L933.533 296.448C934.426 294.941 936.508 294.364 938.153 295.198C939.798 296.015 940.411 297.923 939.518 299.429L928.37 318.215C927.758 319.257 926.585 319.85 925.378 319.85Z" fill="white" fill-opacity="0.1"/>
<path d="M617.006 376.129C616.919 376.129 616.831 376.129 616.744 376.129C614.871 376 613.471 374.494 613.611 372.778L615.186 354.505C615.326 352.79 616.971 351.524 618.844 351.636L638.794 353.079C640.667 353.207 642.067 354.714 641.927 356.429C641.787 358.144 640.142 359.426 638.269 359.298L621.714 358.112L620.419 373.275C620.279 374.91 618.791 376.145 617.024 376.145L617.006 376.129Z" fill="white" fill-opacity="0.1"/>
<path d="M515.75 738.417C515.75 738.417 515.61 738.417 515.54 738.417L495.607 737.359C493.735 737.263 492.3 735.789 492.405 734.057C492.51 732.342 494.085 731.06 496.01 731.124L512.53 732.006L513.493 716.874C513.598 715.159 515.173 713.877 517.098 713.941C518.97 714.037 520.405 715.512 520.3 717.243L519.145 735.5C519.04 737.151 517.535 738.433 515.75 738.433V738.417Z" fill="white" fill-opacity="0.1"/>
<path d="M52.6592 427.486C52.2217 427.486 51.7842 427.405 51.3817 427.261C50.5417 426.957 49.8767 426.347 49.5267 425.578L33.5665 391.019C32.8315 389.433 33.6365 387.605 35.369 386.932C37.1016 386.259 39.0966 386.996 39.8316 388.583L54.4618 420.272L89.0422 406.872C90.7747 406.199 92.7697 406.936 93.5047 408.523C94.2398 410.11 93.4347 411.937 91.7022 412.611L53.9718 427.229C53.5518 427.389 53.0968 427.469 52.6417 427.469L52.6592 427.486Z" fill="white" fill-opacity="0.1"/>
<path d="M543.243 405.526C542.036 405.526 540.863 404.933 540.251 403.891C539.358 402.384 539.953 400.477 541.616 399.659L561.688 389.657L550.768 371.272C549.876 369.765 550.471 367.857 552.133 367.04C553.778 366.222 555.861 366.767 556.753 368.29L569.301 389.416C570.194 390.923 569.599 392.831 567.936 393.648L544.871 405.141C544.346 405.397 543.803 405.526 543.243 405.526Z" fill="white" fill-opacity="0.1"/>
<path d="M329.618 621.533C329.355 621.533 329.093 621.501 328.83 621.453L298.835 615.01C297.96 614.817 297.19 614.32 296.717 613.615C296.245 612.91 296.087 612.06 296.297 611.259L303.332 583.785C303.77 582.102 305.607 581.06 307.427 581.461C309.265 581.861 310.402 583.529 309.965 585.212L303.7 609.656L330.388 615.394C332.225 615.795 333.363 617.462 332.925 619.145C332.558 620.588 331.158 621.549 329.618 621.549V621.533Z" fill="white" fill-opacity="0.1"/>
<path d="M902.33 29.7724C900.93 29.7724 899.617 28.987 899.127 27.7047L889.869 4.17404C889.239 2.5551 890.15 0.759845 891.917 0.182799C893.685 -0.394248 895.645 0.439264 896.275 2.0582L904.377 22.6555L926.865 15.2341C928.632 14.657 930.592 15.4906 931.223 17.1095C931.853 18.7284 930.943 20.5237 929.175 21.1007L903.485 29.5801C903.1 29.7083 902.715 29.7724 902.33 29.7724Z" fill="white" fill-opacity="0.1"/>
<path d="M505.74 187.258C504.165 187.258 502.748 186.264 502.415 184.79L493.018 144.765C492.615 143.082 493.788 141.415 495.625 141.062L539.323 132.455C541.161 132.102 542.981 133.16 543.366 134.843C543.768 136.526 542.596 138.193 540.758 138.546L500.385 146.496L509.065 183.475C509.468 185.158 508.295 186.825 506.458 187.178C506.213 187.226 505.985 187.242 505.74 187.242V187.258Z" fill="white" fill-opacity="0.1"/>
<path d="M257.342 539.545C256.222 539.545 255.12 539.048 254.472 538.118L236.937 513.193C236.447 512.504 236.272 511.654 236.464 510.837C236.657 510.019 237.182 509.33 237.952 508.881L265.165 492.82C266.74 491.89 268.857 492.307 269.872 493.75C270.887 495.192 270.432 497.132 268.857 498.062L244.497 512.44L260.195 534.752C261.21 536.195 260.755 538.134 259.18 539.064C258.602 539.4 257.972 539.561 257.342 539.561V539.545Z" fill="white" fill-opacity="0.1"/>
<path d="M24.257 857.866C23.417 857.866 22.5594 857.577 21.9119 857C20.5469 855.814 20.4944 853.843 21.8069 852.592L43.7522 831.546C45.0472 830.296 47.1997 830.248 48.5648 831.45L71.5425 851.551C72.9076 852.737 72.9601 854.708 71.6475 855.959C70.3525 857.209 68.1825 857.257 66.835 856.055L46.3072 838.118L26.7245 856.904C26.0595 857.545 25.167 857.866 24.257 857.866Z" fill="white" fill-opacity="0.1"/>
<path d="M623.29 520.791C621.452 520.791 619.947 519.46 619.894 517.761L619.579 507.743C619.527 506.028 620.997 504.585 622.887 504.537L633.825 504.249C635.715 504.169 637.272 505.547 637.325 507.278C637.377 508.993 635.907 510.436 634.017 510.484L626.475 510.692L626.685 517.601C626.737 519.316 625.267 520.759 623.377 520.807C623.342 520.807 623.307 520.807 623.272 520.807L623.29 520.791Z" fill="white" fill-opacity="0.1"/>
<path d="M739.578 558.235C739.245 558.235 738.895 558.186 738.563 558.09C736.76 557.577 735.763 555.83 736.323 554.179L745.528 527.074C745.79 526.289 746.403 525.631 747.19 525.247C747.995 524.862 748.923 524.782 749.78 525.038L779.373 533.486C781.176 533.999 782.173 535.746 781.613 537.397C781.053 539.048 779.128 539.961 777.343 539.448L751.005 531.931L742.798 556.055C742.343 557.385 740.995 558.251 739.543 558.251L739.578 558.235Z" fill="white" fill-opacity="0.1"/>
<path d="M828.794 381.755C828.444 381.755 828.094 381.707 827.744 381.594L788.491 369.861C787.634 369.605 786.916 369.044 786.514 368.306C786.111 367.569 786.041 366.719 786.304 365.918L799.114 329.965C799.692 328.33 801.617 327.432 803.402 327.961C805.187 328.49 806.167 330.253 805.589 331.888L793.829 364.876L829.844 375.648C831.629 376.176 832.609 377.94 832.032 379.575C831.559 380.889 830.229 381.723 828.794 381.723V381.755Z" fill="white" fill-opacity="0.1"/>
<path d="M601.291 454.126C600.556 454.126 599.804 453.901 599.191 453.453C597.721 452.379 597.459 450.423 598.631 449.077L612.176 433.336C613.349 431.974 615.484 431.749 616.954 432.823L634.139 445.23C635.609 446.304 635.872 448.259 634.699 449.606C633.527 450.952 631.392 451.192 629.922 450.119L615.414 439.652L603.986 452.94C603.321 453.725 602.324 454.126 601.309 454.126H601.291Z" fill="white" fill-opacity="0.1"/>
<path d="M132.338 303.886C132.093 303.886 131.865 303.869 131.62 303.821C129.783 303.453 128.61 301.802 129.013 300.119L135.961 270.465L103.585 264.101C101.748 263.733 100.575 262.082 100.978 260.399C101.38 258.716 103.183 257.642 105.02 258.01L140.738 265.031C142.576 265.4 143.748 267.051 143.346 268.734L135.681 301.449C135.331 302.908 133.93 303.918 132.355 303.918L132.338 303.886Z" fill="white" fill-opacity="0.1"/>
<path d="M410.871 600.776C410.609 600.776 410.346 600.744 410.084 600.696L371.548 592.28C369.711 591.88 368.591 590.197 369.028 588.53C369.466 586.847 371.303 585.821 373.123 586.221L408.351 593.915L416.751 561.649C417.189 559.966 419.026 558.94 420.846 559.341C422.684 559.741 423.804 561.424 423.366 563.091L414.179 598.387C413.811 599.814 412.411 600.792 410.871 600.792V600.776Z" fill="white" fill-opacity="0.1"/>
<path d="M389.696 119.327C388.314 119.327 387.001 118.541 386.494 117.275L382.329 106.872L370.971 110.687C369.221 111.28 367.243 110.447 366.596 108.828C365.948 107.209 366.858 105.414 368.626 104.821L383.186 99.9317C384.026 99.6431 384.971 99.6752 385.794 100.028C386.616 100.38 387.246 101.006 387.561 101.791L392.899 115.127C393.546 116.746 392.636 118.541 390.869 119.134C390.484 119.263 390.081 119.327 389.696 119.327Z" fill="white" fill-opacity="0.1"/>
<path d="M458.892 334.375C458.664 334.375 458.437 334.359 458.209 334.311L422.719 327.675C421.826 327.515 421.056 327.034 420.566 326.345C420.059 325.655 419.884 324.806 420.076 324.004L427.321 291.497C427.689 289.814 429.509 288.724 431.346 289.061C433.184 289.398 434.374 291.049 434.006 292.748L427.444 322.193L459.592 328.204C461.429 328.541 462.619 330.192 462.252 331.891C461.919 333.365 460.502 334.391 458.909 334.391L458.892 334.375Z" fill="white" fill-opacity="0.1"/>
<path d="M833.921 585.837C833.764 585.837 833.589 585.837 833.431 585.805C831.576 585.564 830.281 583.977 830.544 582.278L837.001 541.116C837.264 539.416 838.979 538.23 840.851 538.471L885.792 544.386C887.647 544.626 888.942 546.213 888.679 547.912C888.417 549.611 886.684 550.797 884.829 550.557L843.249 545.091L837.281 583.176C837.036 584.731 835.584 585.853 833.921 585.853V585.837Z" fill="white" fill-opacity="0.1"/>
<path d="M43.4543 300.519C42.0018 300.519 40.6718 299.67 40.1992 298.339L34.3717 281.365L15.839 286.702C14.0539 287.215 12.1289 286.302 11.5689 284.667C11.0089 283.016 12.0064 281.269 13.7914 280.756L35.5617 274.488C37.3467 273.975 39.2717 274.889 39.8317 276.524L46.6743 296.464C47.2343 298.115 46.2368 299.862 44.4518 300.375C44.1193 300.471 43.7693 300.519 43.4193 300.519H43.4543Z" fill="white" fill-opacity="0.1"/>
<path d="M583.371 207.759C582.321 207.759 581.289 207.31 580.624 206.477C579.521 205.082 579.854 203.127 581.376 202.117L587.816 197.821L583.126 191.938C582.024 190.544 582.356 188.588 583.879 187.578C585.401 186.569 587.536 186.873 588.639 188.268L595.341 196.683C595.866 197.356 596.094 198.19 595.954 199.007C595.814 199.825 595.324 200.562 594.589 201.043L585.401 207.182C584.789 207.583 584.089 207.775 583.389 207.775L583.371 207.759Z" fill="white" fill-opacity="0.1"/>
<path d="M365.895 272.1C364.74 272.1 363.62 271.571 362.99 270.609L343.53 241.42C343.058 240.715 342.918 239.865 343.128 239.064C343.338 238.262 343.898 237.557 344.668 237.14L376.536 219.316C378.146 218.418 380.228 218.883 381.226 220.358C382.206 221.833 381.698 223.74 380.088 224.654L351.125 240.843L368.801 267.371C369.781 268.846 369.273 270.753 367.663 271.667C367.103 271.972 366.49 272.132 365.895 272.132V272.1Z" fill="white" fill-opacity="0.1"/>
<path d="M554.88 515.373C554.023 515.373 553.165 515.084 552.518 514.491L531.902 496.218C530.555 495.016 530.52 493.044 531.815 491.81L551.765 472.928C553.078 471.694 555.23 471.662 556.578 472.848C557.925 474.05 557.96 476.022 556.665 477.256L539.095 493.894L557.26 509.987C558.608 511.189 558.643 513.161 557.348 514.395C556.683 515.02 555.79 515.341 554.898 515.341L554.88 515.373Z" fill="white" fill-opacity="0.1"/>
<path d="M790.643 192.291C790.083 192.291 789.541 192.163 789.033 191.923L755.503 175.525C753.84 174.707 753.21 172.816 754.103 171.309C754.978 169.786 757.043 169.209 758.706 170.027L789.226 184.966L805.536 157.011C806.411 155.488 808.476 154.911 810.139 155.729C811.801 156.546 812.431 158.438 811.539 159.945L793.636 190.656C793.216 191.394 792.481 191.939 791.623 192.179C791.291 192.275 790.958 192.307 790.626 192.307L790.643 192.291Z" fill="white" fill-opacity="0.1"/>
<path d="M170.803 716.249C170.593 716.249 170.383 716.233 170.173 716.201C168.318 715.88 167.111 714.261 167.461 712.562L170.086 699.739C170.243 698.922 170.768 698.2 171.503 697.735C172.256 697.271 173.183 697.094 174.058 697.239L188.058 699.643C189.914 699.964 191.121 701.582 190.771 703.282C190.421 704.981 188.636 706.103 186.798 705.766L176.141 703.939L174.146 713.7C173.848 715.207 172.413 716.249 170.803 716.249Z" fill="white" fill-opacity="0.1"/>
<path d="M830.842 743.483C830.212 743.483 829.582 743.322 829.022 743.002L790.644 720.625C789.051 719.695 788.596 717.772 789.594 716.313L814.024 681.162C815.039 679.703 817.139 679.286 818.732 680.2C820.324 681.129 820.779 683.053 819.782 684.512L797.189 717.019L832.679 737.712C834.272 738.642 834.727 740.565 833.729 742.024C833.082 742.954 831.979 743.466 830.859 743.466L830.842 743.483Z" fill="white" fill-opacity="0.1"/>
<path d="M593.678 287.808C592.908 287.808 592.138 287.568 591.508 287.087L571.943 272.164C570.491 271.058 570.298 269.086 571.506 267.772L587.798 249.851C589.006 248.521 591.158 248.345 592.593 249.451C594.046 250.557 594.238 252.528 593.031 253.843L578.926 269.359L595.866 282.278C597.318 283.384 597.511 285.356 596.303 286.67C595.621 287.408 594.658 287.792 593.678 287.792V287.808Z" fill="white" fill-opacity="0.1"/>
<path d="M928.475 444.925C927.075 444.925 925.762 444.124 925.272 442.841L922.157 434.811C921.527 433.192 922.455 431.397 924.222 430.82L932.99 427.966C934.758 427.389 936.718 428.239 937.348 429.858C937.978 431.477 937.05 433.272 935.283 433.849L929.735 435.66L931.713 440.742C932.343 442.361 931.415 444.156 929.648 444.733C929.28 444.861 928.878 444.909 928.51 444.909L928.475 444.925Z" fill="white" fill-opacity="0.1"/>
<path d="M132.898 142.136C131.148 142.136 129.678 140.918 129.503 139.299L124.988 94.4817C124.813 92.7666 126.195 91.2439 128.068 91.0836L176.998 86.9481C178.853 86.7717 180.533 88.0541 180.708 89.7692C180.883 91.4843 179.501 93.007 177.628 93.1673L132.093 97.0143L136.293 138.722C136.468 140.437 135.085 141.96 133.213 142.12C133.108 142.12 133.003 142.12 132.898 142.12V142.136Z" fill="white" fill-opacity="0.1"/>
<path d="M439.467 795.577C438.259 795.577 437.087 794.984 436.474 793.942C435.582 792.419 436.194 790.528 437.857 789.711L442.109 787.611L439.817 783.716C438.924 782.193 439.537 780.301 441.199 779.484C442.844 778.666 444.927 779.228 445.819 780.75L449.722 787.386C450.614 788.909 450.002 790.8 448.339 791.618L441.094 795.192C440.587 795.449 440.027 795.561 439.484 795.561L439.467 795.577Z" fill="white" fill-opacity="0.1"/>
<path d="M430.156 254.804C429.386 254.804 428.616 254.564 427.969 254.083L421.056 248.793C419.621 247.687 419.429 245.716 420.636 244.402C421.844 243.071 423.996 242.911 425.431 244.017L429.736 247.303L433.324 243.376C434.531 242.045 436.684 241.885 438.119 242.991C439.554 244.097 439.746 246.069 438.539 247.383L432.764 253.714C432.099 254.452 431.119 254.836 430.156 254.836V254.804Z" fill="white" fill-opacity="0.1"/>
<path d="M16.2945 688.262C15.5944 688.262 14.8944 688.07 14.2994 687.669C12.7769 686.66 12.4444 684.704 13.5469 683.309L24.047 670.069L9.59187 660.452C8.06935 659.442 7.73685 657.487 8.83936 656.092C9.94188 654.698 12.0769 654.393 13.5994 655.403L30.8196 666.864C32.3422 667.873 32.6747 669.829 31.5721 671.224L19.0595 686.996C18.3945 687.83 17.362 688.278 16.2945 688.278V688.262Z" fill="white" fill-opacity="0.1"/>
<path d="M915.683 101.15C915.455 101.15 915.227 101.134 915 101.086L871.512 93.0872C869.674 92.7506 868.467 91.0996 868.834 89.4165C869.202 87.7174 871.004 86.6275 872.842 86.9641L912.988 94.3535L921.055 57.5828C921.423 55.8837 923.225 54.7938 925.063 55.1304C926.9 55.467 928.108 57.118 927.74 58.801L919.008 98.6332C918.675 100.108 917.258 101.134 915.665 101.134L915.683 101.15Z" fill="white" fill-opacity="0.1"/>
<path d="M559.081 71.5602C558.994 71.5602 558.889 71.5602 558.801 71.5602C556.929 71.416 555.529 69.9092 555.686 68.1941L557.734 45.513L532.971 43.6376C531.098 43.4933 529.698 41.9866 529.856 40.2715C530.013 38.5564 531.641 37.258 533.531 37.4183L561.689 39.5502C563.561 39.6944 564.961 41.2012 564.804 42.9163L562.476 68.707C562.336 70.342 560.831 71.5762 559.081 71.5762V71.5602Z" fill="white" fill-opacity="0.1"/>
<path d="M587.379 739.123C586.906 739.123 586.434 739.027 585.996 738.85C584.281 738.145 583.511 736.302 584.281 734.731L597.476 707.722L567.988 695.636C566.273 694.931 565.503 693.087 566.273 691.516C567.043 689.946 569.056 689.24 570.771 689.945L603.356 703.314C605.071 704.019 605.841 705.862 605.071 707.433L590.476 737.279C589.916 738.433 588.674 739.123 587.361 739.123H587.379Z" fill="white" fill-opacity="0.1"/>
<path d="M499.702 378.02C498.67 378.02 497.655 377.587 496.972 376.786L480.697 357.022C479.559 355.643 479.857 353.688 481.362 352.646L502.94 337.739C504.445 336.697 506.58 336.969 507.717 338.348C508.855 339.726 508.557 341.682 507.052 342.724L488.187 355.756L502.415 373.035C503.552 374.413 503.255 376.369 501.75 377.411C501.137 377.844 500.42 378.036 499.702 378.036V378.02Z" fill="white" fill-opacity="0.1"/>
<path d="M676.717 559.132C675.527 559.132 674.389 558.571 673.759 557.561C672.832 556.071 673.392 554.163 675.037 553.314L681.267 550.06L677.714 544.337C676.787 542.847 677.347 540.939 678.992 540.09C680.619 539.224 682.702 539.753 683.629 541.26L688.879 549.691C689.807 551.182 689.247 553.089 687.602 553.939L678.397 558.748C677.872 559.02 677.294 559.164 676.717 559.164V559.132Z" fill="white" fill-opacity="0.1"/>
<path d="M136.783 639.149C135.261 639.149 133.878 638.22 133.493 636.809C133.021 635.142 134.123 633.443 135.943 633.01L177.016 623.329L166.446 585.709C165.974 584.042 167.076 582.342 168.896 581.91C170.716 581.477 172.571 582.487 173.044 584.154L184.471 624.803C184.699 625.605 184.559 626.454 184.104 627.176C183.649 627.881 182.896 628.41 182.021 628.602L137.641 639.069C137.361 639.133 137.063 639.165 136.783 639.165V639.149Z" fill="white" fill-opacity="0.1"/>
<path d="M374.068 866.922C372.791 866.922 371.566 866.265 370.988 865.143L359.77 843.504C358.965 841.949 359.683 840.09 361.38 839.352L385.006 829.078C386.703 828.34 388.733 828.998 389.538 830.552C390.343 832.107 389.626 833.967 387.928 834.704L367.383 843.648L377.148 862.466C377.953 864.021 377.236 865.88 375.538 866.618C375.066 866.826 374.576 866.922 374.086 866.922H374.068Z" fill="white" fill-opacity="0.1"/>
<path d="M167.881 415.015C166.516 415.015 165.221 414.262 164.696 413.011L151.588 381.963C150.906 380.36 151.781 378.549 153.531 377.924L187.428 365.918C189.196 365.293 191.156 366.094 191.839 367.697C192.521 369.3 191.646 371.111 189.896 371.736L159.166 382.62L171.048 410.767C171.731 412.37 170.856 414.181 169.106 414.807C168.703 414.951 168.283 415.015 167.881 415.015Z" fill="white" fill-opacity="0.1"/>
<path d="M520.93 93.5681C520.93 93.5681 520.825 93.5681 520.755 93.5681L496.622 92.4941C494.75 92.414 493.297 90.9393 493.385 89.2242L494.557 67.1201C494.645 65.405 496.255 64.0746 498.127 64.1547C500 64.2349 501.452 65.7095 501.365 67.4246L500.35 86.4031L521.07 87.3327C522.942 87.4129 524.395 88.8876 524.308 90.6027C524.22 92.2697 522.715 93.5681 520.912 93.5681H520.93Z" fill="white" fill-opacity="0.1"/>
<path d="M834.709 454.495C833.064 454.495 831.629 453.405 831.349 451.882L827.954 432.823L807.146 435.933C805.291 436.221 803.541 435.051 803.244 433.352C802.946 431.653 804.206 430.05 806.061 429.778L830.229 426.171C832.084 425.883 833.834 427.053 834.132 428.752L838.069 450.888C838.367 452.587 837.107 454.19 835.252 454.463C835.059 454.495 834.884 454.511 834.709 454.511V454.495Z" fill="white" fill-opacity="0.1"/>
<path d="M780.966 865.095C780.266 865.095 779.566 864.903 778.971 864.502C777.448 863.492 777.116 861.537 778.218 860.142L785.796 850.573C786.898 849.178 789.033 848.874 790.556 849.884L801.004 856.824C802.526 857.834 802.859 859.79 801.756 861.184C800.654 862.579 798.519 862.899 796.996 861.873L789.313 856.76L783.731 863.797C783.066 864.63 782.033 865.079 780.966 865.079V865.095Z" fill="white" fill-opacity="0.1"/>
<path d="M806.271 307.3C805.624 307.3 804.976 307.139 804.399 306.787C802.824 305.841 802.404 303.901 803.436 302.459L829.512 266.313L790.049 242.43C788.474 241.484 788.054 239.545 789.086 238.102C790.119 236.66 792.236 236.275 793.811 237.221L836.109 262.835C837.684 263.781 838.104 265.72 837.072 267.163L809.106 305.905C808.459 306.819 807.374 307.3 806.254 307.3H806.271Z" fill="white" fill-opacity="0.1"/>
<path d="M773.179 647.356C772.251 647.356 771.341 647.02 770.676 646.346L757.201 632.962C755.923 631.696 756.011 629.724 757.393 628.554C758.776 627.384 760.928 627.464 762.206 628.73L773.371 639.823L785.481 629.596C786.864 628.426 789.016 628.506 790.294 629.772C791.571 631.039 791.484 633.01 790.101 634.18L775.489 646.523C774.841 647.084 774.001 647.356 773.179 647.356Z" fill="white" fill-opacity="0.1"/>
<path d="M22.9615 58.224C21.929 58.224 20.8965 57.7912 20.2314 56.9738L7.00128 40.7523C5.88127 39.3738 6.17877 37.4183 7.70129 36.3924L25.4115 24.2745C26.9165 23.2486 29.0515 23.5371 30.1716 24.9156C31.2916 26.2941 30.9941 28.2497 29.4716 29.2755L14.4914 39.5181L25.674 53.239C26.794 54.6175 26.4965 56.573 24.974 57.5989C24.3615 58.0156 23.644 58.224 22.944 58.224H22.9615Z" fill="white" fill-opacity="0.1"/>
<path d="M670.54 220.342C669.682 220.342 668.842 220.053 668.177 219.46C666.829 218.258 666.777 216.287 668.09 215.052L693.605 190.816L667.144 167.446C665.797 166.244 665.744 164.272 667.057 163.038C668.37 161.804 670.522 161.772 671.87 162.958L700.78 188.492C702.127 189.694 702.18 191.666 700.867 192.9L672.99 219.38C672.325 220.021 671.432 220.326 670.54 220.326V220.342Z" fill="white" fill-opacity="0.1"/>
<path d="M593.538 581.461C592.296 581.461 591.106 580.836 590.493 579.762L576.633 554.885C575.776 553.346 576.441 551.47 578.121 550.685C579.801 549.9 581.848 550.509 582.706 552.047L595.026 574.152L619.159 562.867C620.839 562.082 622.886 562.691 623.744 564.23C624.601 565.768 623.936 567.644 622.256 568.429L595.096 581.124C594.606 581.349 594.063 581.461 593.556 581.461H593.538Z" fill="white" fill-opacity="0.1"/>
<path d="M237.427 811.862C236.237 811.862 235.082 811.285 234.452 810.276C233.525 808.769 234.102 806.877 235.747 806.028L248.277 799.552L241.207 788.075C240.28 786.569 240.857 784.677 242.502 783.828C244.147 782.994 246.212 783.507 247.14 785.014L255.872 799.216C256.31 799.937 256.432 800.786 256.187 801.588C255.942 802.389 255.365 803.063 254.577 803.463L239.072 811.462C238.547 811.734 237.97 811.862 237.41 811.862H237.427Z" fill="white" fill-opacity="0.1"/>
<path d="M150.853 552.801C150.678 552.801 150.521 552.801 150.346 552.769C148.491 552.512 147.196 550.925 147.476 549.226L150.171 532.476C150.451 530.777 152.201 529.607 154.038 529.847L172.326 532.316C174.181 532.572 175.476 534.159 175.196 535.858C174.916 537.557 173.183 538.759 171.328 538.487L156.418 536.467L154.213 550.124C153.968 551.679 152.516 552.785 150.853 552.785V552.801Z" fill="white" fill-opacity="0.1"/>
<path d="M930.453 806.076C929.21 806.076 928.003 805.451 927.408 804.361L920.705 792.179C920.303 791.441 920.233 790.576 920.513 789.79C920.793 789.005 921.405 788.348 922.21 787.979L935.511 781.84C937.191 781.055 939.238 781.68 940.078 783.219C940.918 784.757 940.253 786.633 938.573 787.402L928.318 792.131L933.481 801.524C934.321 803.063 933.656 804.938 931.976 805.707C931.486 805.932 930.961 806.044 930.453 806.044V806.076Z" fill="white" fill-opacity="0.1"/>
<path d="M449.144 207.695C447.709 207.695 446.362 206.845 445.907 205.515L432.799 167.895L391.726 179.901C389.941 180.413 388.016 179.516 387.438 177.881C386.861 176.246 387.858 174.483 389.643 173.954L433.954 161.002C435.739 160.473 437.664 161.387 438.242 163.022L452.382 203.608C452.959 205.243 451.962 207.006 450.177 207.535C449.827 207.631 449.477 207.679 449.144 207.679V207.695Z" fill="white" fill-opacity="0.1"/>
<path d="M531.062 795.368C530.747 795.368 530.45 795.336 530.135 795.256C528.332 794.791 527.282 793.06 527.79 791.409L533.827 771.918L512.547 766.388C510.744 765.923 509.694 764.192 510.202 762.541C510.709 760.89 512.599 759.912 514.402 760.393L538.972 766.773C540.775 767.237 541.825 768.969 541.317 770.62L534.352 793.124C533.932 794.503 532.567 795.401 531.08 795.401L531.062 795.368Z" fill="white" fill-opacity="0.1"/>
<path d="M880.297 275.113C879.86 275.113 879.405 275.033 878.967 274.873C877.235 274.2 876.43 272.372 877.165 270.785L896.152 229.639C896.502 228.869 897.167 228.276 898.007 227.956C898.847 227.651 899.775 227.651 900.615 227.972L945.538 245.363C947.27 246.037 948.076 247.864 947.341 249.451C946.606 251.038 944.611 251.775 942.878 251.102L901.087 234.912L883.412 273.19C882.87 274.376 881.61 275.097 880.28 275.097L880.297 275.113Z" fill="white" fill-opacity="0.1"/>
<path d="M897.989 762.22C897.447 762.22 896.887 762.092 896.362 761.836C894.717 761.018 894.104 759.111 894.997 757.604L912.129 728.816L880.699 713.123C879.054 712.306 878.442 710.399 879.334 708.892C880.227 707.385 882.309 706.824 883.954 707.642L918.377 724.825C920.022 725.642 920.635 727.55 919.742 729.056L900.982 760.586C900.369 761.627 899.197 762.22 897.989 762.22Z" fill="white" fill-opacity="0.1"/>
<path d="M226.384 160.281C225.019 160.281 223.724 159.512 223.199 158.261L209.409 125.065C208.744 123.462 209.619 121.651 211.386 121.042C213.136 120.433 215.114 121.234 215.779 122.853L228.362 153.132L261.42 141.607C263.17 140.998 265.147 141.8 265.812 143.419C266.477 145.021 265.602 146.833 263.835 147.442L227.592 160.073C227.189 160.217 226.787 160.281 226.384 160.281Z" fill="white" fill-opacity="0.1"/>
<path d="M664.029 679.975C662.454 679.975 661.036 678.965 660.704 677.507L650.134 632.241C649.749 630.558 650.921 628.891 652.759 628.538L702.179 618.856C704.017 618.504 705.837 619.562 706.222 621.261C706.607 622.944 705.434 624.611 703.597 624.964L657.519 633.988L667.371 676.192C667.756 677.875 666.584 679.543 664.746 679.895C664.501 679.943 664.274 679.959 664.029 679.959V679.975Z" fill="white" fill-opacity="0.1"/>
<path d="M342.673 551.631C340.871 551.631 339.366 550.348 339.278 548.681L336.845 507.663C336.793 506.829 337.108 506.028 337.721 505.403C338.316 504.794 339.173 504.409 340.066 504.377L384.849 502.149C386.704 502.069 388.331 503.367 388.436 505.098C388.541 506.813 387.089 508.288 385.216 508.384L343.846 510.436L346.086 548.329C346.191 550.044 344.756 551.519 342.866 551.615C342.796 551.615 342.743 551.615 342.673 551.615V551.631Z" fill="white" fill-opacity="0.1"/>
<path d="M672.289 421.314C671.974 421.314 671.659 421.266 671.344 421.186L658.901 417.9C657.099 417.419 656.049 415.688 656.574 414.037L660.161 402.641C660.686 400.99 662.576 400.044 664.379 400.509C666.181 400.99 667.231 402.721 666.706 404.372L664.064 412.771L673.234 415.191C675.037 415.672 676.087 417.403 675.562 419.054C675.124 420.417 673.777 421.314 672.289 421.314Z" fill="white" fill-opacity="0.1"/>
<path d="M291.765 212.552C291.415 212.552 291.047 212.504 290.697 212.392L274.965 207.663C273.18 207.134 272.2 205.371 272.795 203.72C273.39 202.085 275.315 201.187 277.1 201.732L289.595 205.483L293.69 194.038C294.285 192.403 296.193 191.506 297.995 192.051C299.78 192.58 300.76 194.343 300.165 195.994L295.003 210.404C294.53 211.718 293.2 212.552 291.765 212.552Z" fill="white" fill-opacity="0.1"/>
<path d="M473.854 857.241C473.749 857.241 473.644 857.241 473.522 857.241L425.921 853.073C424.049 852.913 422.684 851.39 422.859 849.675C423.034 847.96 424.661 846.694 426.569 846.87L470.774 850.733L474.992 810.243C475.167 808.528 476.795 807.278 478.702 807.438C480.575 807.599 481.94 809.121 481.765 810.837L477.215 854.436C477.04 856.055 475.569 857.257 473.819 857.257L473.854 857.241Z" fill="white" fill-opacity="0.1"/>
<path d="M279.007 106.968C278.29 106.968 277.555 106.76 276.942 106.327L270.169 101.599C268.682 100.557 268.384 98.6013 269.522 97.2228L274.685 91.0195C275.822 89.6571 277.957 89.3846 279.462 90.4264C280.967 91.4683 281.247 93.4239 280.11 94.8024L277.012 98.5211L281.09 101.358C282.577 102.4 282.875 104.356 281.737 105.734C281.072 106.536 280.057 106.968 279.025 106.968H279.007Z" fill="white" fill-opacity="0.1"/>
<path d="M130.938 859.389H130.885L119.09 859.212C118.18 859.212 117.323 858.86 116.693 858.267C116.063 857.674 115.713 856.872 115.73 856.039L115.923 845.235C115.958 843.52 117.358 842.189 119.388 842.157C121.26 842.189 122.765 843.6 122.748 845.331L122.608 853.025L131.008 853.153C132.88 853.185 134.385 854.596 134.368 856.327C134.333 858.026 132.828 859.405 130.955 859.405L130.938 859.389Z" fill="white" fill-opacity="0.1"/>
<path d="M312.765 698.473C312.485 698.473 312.205 698.441 311.908 698.377C310.088 697.944 308.985 696.245 309.458 694.578L312.853 682.46L299.622 679.35C297.802 678.917 296.7 677.218 297.172 675.551C297.645 673.884 299.5 672.89 301.32 673.307L317.858 677.202C319.678 677.635 320.78 679.334 320.308 681.001L316.055 696.149C315.653 697.559 314.27 698.489 312.765 698.489V698.473Z" fill="white" fill-opacity="0.1"/>
<path d="M734.433 866.586C734.293 866.586 734.17 866.586 734.03 866.57L703.195 863.3C701.323 863.107 699.992 861.553 700.202 859.838C700.412 858.122 702.11 856.872 703.983 857.096L731.44 859.998L734.608 834.848C734.818 833.133 736.533 831.899 738.388 832.107C740.26 832.3 741.591 833.854 741.381 835.569L737.81 863.813C737.618 865.4 736.13 866.57 734.433 866.57V866.586Z" fill="white" fill-opacity="0.1"/>
<path d="M29.4363 797.821C27.8787 797.821 26.4612 796.827 26.1112 795.385L16.8886 757.364C16.4861 755.681 17.6411 754.014 19.4786 753.645L60.9891 745.198C62.8442 744.829 64.6467 745.887 65.0492 747.57C65.4517 749.253 64.2967 750.92 62.4592 751.289L24.2737 759.047L32.7438 794.022C33.1463 795.705 31.9913 797.372 30.1538 797.741C29.9088 797.789 29.6638 797.821 29.4188 797.821H29.4363Z" fill="white" fill-opacity="0.1"/>
<path d="M60.0794 625.252C59.0819 625.252 58.0844 624.852 57.4194 624.066C56.2468 622.72 56.4918 620.748 57.9619 619.69L94.3098 593.226L65.417 559.918C64.2444 558.571 64.4894 556.6 65.9595 555.542C67.4295 554.468 69.582 554.692 70.737 556.039L101.747 591.784C102.92 593.13 102.675 595.102 101.205 596.159L62.1794 624.563C61.5494 625.028 60.7969 625.236 60.0619 625.236L60.0794 625.252Z" fill="white" fill-opacity="0.1"/>
<path d="M478.177 21.9021C477.652 21.9021 477.11 21.7899 476.62 21.5495C474.94 20.7641 474.292 18.8727 475.15 17.3499L481.257 6.49822C482.115 4.95942 484.18 4.36635 485.842 5.15177L497.69 10.7459C499.37 11.5313 500.017 13.4228 499.16 14.9455C498.302 16.4683 496.237 17.0774 494.575 16.292L485.755 12.1244L481.205 20.2031C480.592 21.277 479.402 21.8861 478.177 21.8861V21.9021Z" fill="white" fill-opacity="0.1"/>
<path d="M704.402 489.326C703.265 489.326 702.162 488.813 701.515 487.867L687.812 467.863C686.815 466.404 687.287 464.481 688.88 463.567C690.472 462.653 692.572 463.086 693.57 464.545L705.47 481.904L724.423 471.005C726.015 470.091 728.115 470.54 729.113 471.982C730.11 473.441 729.638 475.364 728.045 476.278L706.205 488.829C705.645 489.149 705.015 489.31 704.402 489.31V489.326Z" fill="white" fill-opacity="0.1"/>
<path d="M541.108 860.142C540.373 860.142 539.62 859.918 539.008 859.469C537.538 858.395 537.275 856.439 538.448 855.093L564.261 825.102C565.433 823.756 567.568 823.516 569.038 824.59L601.781 848.232C603.251 849.306 603.514 851.262 602.341 852.608C601.169 853.955 599.033 854.195 597.563 853.121L567.498 831.402L543.785 858.94C543.12 859.725 542.123 860.126 541.108 860.126V860.142Z" fill="white" fill-opacity="0.1"/>
<path d="M82.2697 44.3107C81.4297 44.3107 80.5897 44.0222 79.9247 43.4452C78.5597 42.259 78.5072 40.2874 79.8022 39.0372L87.6248 31.5035L79.3997 24.3385C78.0347 23.1524 77.9822 21.1808 79.2772 19.9305C80.5722 18.6803 82.7247 18.6322 84.0897 19.8183L94.7824 29.1312C96.1474 30.3174 96.1999 32.2889 94.9049 33.5392L84.7372 43.333C84.0722 43.9741 83.1622 44.2947 82.2697 44.2947V44.3107Z" fill="white" fill-opacity="0.1"/>
<path d="M525.743 269.183C524.431 269.183 523.171 268.477 522.611 267.307L507.245 234.832C506.493 233.245 507.298 231.418 509.013 230.729L544.468 216.655C546.201 215.966 548.196 216.703 548.948 218.274C549.701 219.861 548.896 221.688 547.181 222.378L514.841 235.217L528.858 264.839C529.611 266.426 528.806 268.253 527.091 268.942C526.653 269.118 526.198 269.199 525.743 269.199V269.183Z" fill="white" fill-opacity="0.1"/>
<path d="M386.511 682.957C386.389 682.957 386.249 682.957 386.126 682.941L370.411 681.29C368.538 681.097 367.208 679.542 367.418 677.827C367.628 676.112 369.326 674.894 371.198 675.086L383.536 676.385L384.954 665.084C385.164 663.369 386.861 662.151 388.734 662.343C390.606 662.536 391.936 664.09 391.726 665.805L389.924 680.2C389.731 681.786 388.244 682.973 386.546 682.973L386.511 682.957Z" fill="white" fill-opacity="0.1"/>
<path d="M490.182 299.285C489.745 299.285 489.307 299.205 488.87 299.045L470.074 291.864C468.342 291.206 467.519 289.379 468.237 287.776L476.077 270.561C476.794 268.974 478.789 268.221 480.54 268.878C482.272 269.535 483.095 271.362 482.377 272.965L475.849 287.295L491.495 293.274C493.227 293.931 494.05 295.759 493.332 297.362C492.79 298.564 491.53 299.285 490.182 299.285Z" fill="white" fill-opacity="0.1"/>
<path d="M608.99 18.8406C608.203 18.8406 607.415 18.6002 606.768 18.0872L598.613 11.6916C597.178 10.5696 597.02 8.59803 598.245 7.28365C599.47 5.96926 601.623 5.825 603.058 6.94704L608.623 11.3069L613.383 6.2097C614.608 4.89532 616.761 4.75105 618.178 5.87309C619.613 6.99512 619.771 8.9667 618.546 10.2811L611.563 17.7506C610.88 18.4719 609.935 18.8406 608.973 18.8406H608.99Z" fill="white" fill-opacity="0.1"/>
<path d="M710.702 152.956C709.617 152.956 708.55 152.475 707.885 151.609L692.572 131.172C691.505 129.746 691.907 127.806 693.447 126.828L715.76 112.803C717.317 111.825 719.435 112.194 720.502 113.604C721.57 115.031 721.167 116.971 719.627 117.948L700.115 130.195L713.502 148.051C714.57 149.478 714.167 151.417 712.627 152.395C712.032 152.763 711.367 152.94 710.702 152.94V152.956Z" fill="white" fill-opacity="0.1"/>
<path d="M198.506 72.6021C197.281 72.6021 196.109 72.009 195.496 70.9511C194.621 69.4283 195.251 67.5369 196.896 66.7354L237.444 46.9876L215.884 9.84829C215.009 8.32552 215.639 6.43409 217.284 5.63264C218.946 4.83119 221.011 5.40823 221.886 6.91497L245.057 46.8113C245.477 47.5486 245.564 48.3982 245.302 49.1836C245.039 49.969 244.444 50.6423 243.639 51.027L200.081 72.2494C199.574 72.4899 199.031 72.6181 198.489 72.6181L198.506 72.6021Z" fill="white" fill-opacity="0.1"/>
<path d="M6.84375 596.817C6.07374 596.817 5.32124 596.592 4.69123 596.111C3.23871 595.021 3.02871 593.05 4.21872 591.719L17.8514 576.508L1.24369 564.021C-0.208831 562.931 -0.418834 560.96 0.77118 559.629C1.96119 558.299 4.11372 558.106 5.56624 559.196L24.799 573.671C26.2515 574.761 26.4615 576.732 25.2715 578.063L9.46879 595.678C8.78628 596.432 7.82377 596.817 6.82625 596.817H6.84375Z" fill="white" fill-opacity="0.1"/>
<path d="M83.932 711.296C82.6544 711.296 81.4469 710.639 80.8519 709.517C80.0469 707.962 80.7469 706.103 82.4444 705.349L105.58 695.203L94.5021 674.029C93.6971 672.474 94.3971 670.614 96.0946 669.861C97.7921 669.108 99.8222 669.765 100.645 671.32L113.192 695.315C113.577 696.069 113.63 696.918 113.332 697.703C113.035 698.489 112.405 699.13 111.582 699.483L85.3845 710.976C84.912 711.184 84.4045 711.28 83.9145 711.28L83.932 711.296Z" fill="white" fill-opacity="0.1"/>
<path d="M626.946 168.776C626.771 168.776 626.596 168.776 626.404 168.744L584.21 162.637C583.318 162.509 582.513 162.06 581.988 161.387C581.463 160.714 581.235 159.88 581.375 159.063L588.043 120.417C588.341 118.718 590.108 117.547 591.946 117.82C593.801 118.092 595.078 119.679 594.781 121.394L588.656 156.963L627.489 162.573C629.344 162.846 630.621 164.433 630.324 166.148C630.061 167.686 628.609 168.776 626.964 168.776H626.946Z" fill="white" fill-opacity="0.1"/>
<path d="M645.374 303.757C645.041 303.757 644.709 303.709 644.376 303.613C642.574 303.116 641.559 301.369 642.119 299.718L652.724 267.916L618.003 258.203C616.201 257.706 615.186 255.959 615.746 254.308C616.288 252.657 618.196 251.727 619.998 252.24L657.991 262.867C658.849 263.108 659.584 263.653 660.004 264.39C660.424 265.127 660.511 265.977 660.249 266.762L648.646 301.561C648.191 302.908 646.844 303.773 645.391 303.773L645.374 303.757Z" fill="white" fill-opacity="0.1"/>
<path d="M691.539 372.682C691.172 372.682 690.804 372.634 690.437 372.506C688.652 371.945 687.707 370.166 688.319 368.547L700.604 335.735C701.217 334.1 703.142 333.235 704.927 333.796L740.75 345.048C742.535 345.609 743.48 347.388 742.867 349.007C742.255 350.642 740.312 351.508 738.545 350.947L705.942 340.704L694.759 370.566C694.269 371.865 692.957 372.682 691.539 372.682Z" fill="white" fill-opacity="0.1"/>
<path d="M316.353 457.251C315.81 457.251 315.25 457.123 314.725 456.883L306.412 452.763C304.767 451.946 304.137 450.054 305.047 448.532C305.94 447.025 308.005 446.448 309.667 447.281L314.988 449.926L317.858 445.053C318.75 443.547 320.815 442.969 322.478 443.803C324.123 444.62 324.753 446.512 323.843 448.035L319.345 455.648C318.733 456.69 317.56 457.283 316.353 457.283V457.251Z" fill="white" fill-opacity="0.1"/>
<path d="M196.651 308.502C195.444 308.502 194.289 307.925 193.659 306.883L189.581 300.087C188.671 298.58 189.284 296.672 190.929 295.855C192.574 295.021 194.656 295.582 195.549 297.089L197.981 301.145L202.409 298.917C204.054 298.083 206.136 298.644 207.029 300.151C207.939 301.657 207.326 303.565 205.681 304.382L198.261 308.117C197.736 308.374 197.176 308.502 196.616 308.502H196.651Z" fill="white" fill-opacity="0.1"/>
<path d="M335.656 168.536C333.783 168.536 332.261 167.141 332.243 165.426L332.191 146.079L311.068 146.127C309.195 146.127 307.673 144.733 307.655 143.018C307.655 141.287 309.178 139.892 311.05 139.892L335.568 139.844C337.441 139.844 338.963 141.239 338.981 142.954L339.033 165.41C339.033 167.125 337.511 168.536 335.638 168.536H335.656Z" fill="white" fill-opacity="0.1"/>
<path d="M108.328 790.592C106.893 790.592 105.563 789.758 105.09 788.444C104.495 786.809 105.475 785.046 107.26 784.501L122.065 780.029L117.183 766.468C116.588 764.833 117.568 763.07 119.353 762.525C121.138 761.98 123.063 762.878 123.658 764.513L129.608 781.039C130.203 782.674 129.223 784.437 127.438 784.982L109.395 790.432C109.045 790.544 108.678 790.592 108.328 790.592Z" fill="white" fill-opacity="0.1"/>
<path d="M694.48 792.612C694.34 792.612 694.201 792.612 694.061 792.596C692.188 792.387 690.858 790.832 691.085 789.117L695.793 753.693L657.118 749.381C655.245 749.173 653.915 747.618 654.143 745.903C654.37 744.188 656.085 742.97 657.94 743.178L699.993 747.858C701.866 748.067 703.196 749.622 702.968 751.337L697.858 789.855C697.648 791.441 696.178 792.596 694.48 792.596V792.612Z" fill="white" fill-opacity="0.1"/>
<path d="M244.409 352.87C244.147 352.87 243.884 352.838 243.622 352.79C241.784 352.389 240.647 350.722 241.084 349.039L243.657 338.989C244.094 337.306 245.914 336.264 247.752 336.665L258.725 339.021C260.562 339.422 261.7 341.089 261.262 342.772C260.825 344.455 258.987 345.497 257.167 345.096L249.502 343.445L247.699 350.466C247.332 351.909 245.932 352.87 244.392 352.87H244.409Z" fill="white" fill-opacity="0.1"/>
<path d="M217.459 250.412C216.129 250.412 214.869 249.691 214.327 248.505L205.121 228.533C204.386 226.946 205.209 225.119 206.941 224.445L228.747 216.014C230.479 215.341 232.474 216.094 233.209 217.681C233.944 219.268 233.122 221.095 231.389 221.769L212.716 228.982L220.592 246.085C221.327 247.671 220.504 249.499 218.772 250.172C218.334 250.332 217.897 250.412 217.442 250.412H217.459Z" fill="white" fill-opacity="0.1"/>
<path d="M9.85412 145.278C8.99661 145.278 8.1216 144.973 7.4741 144.38C6.12658 143.178 6.10908 141.19 7.4391 139.972L14.9467 132.984L7.31659 126.107C5.96908 124.905 5.95158 122.917 7.28159 121.699C8.59411 120.465 10.7466 120.449 12.0942 121.667L22.1568 130.723C23.5043 131.926 23.5218 133.913 22.1918 135.131L12.3042 144.348C11.6391 144.973 10.7641 145.278 9.87162 145.278H9.85412Z" fill="white" fill-opacity="0.1"/>
<path d="M934.425 509.859C933.48 509.859 932.535 509.506 931.87 508.801L925.185 501.86C923.942 500.562 924.082 498.591 925.482 497.452L933.06 491.329C934.477 490.191 936.63 490.32 937.873 491.602C939.115 492.9 938.975 494.872 937.575 496.01L932.553 500.065L936.98 504.666C938.223 505.964 938.083 507.935 936.683 509.074C936.035 509.603 935.23 509.859 934.425 509.859Z" fill="white" fill-opacity="0.1"/>
<path d="M864.775 489.967C864.11 489.967 863.445 489.791 862.867 489.422C861.31 488.46 860.907 486.521 861.957 485.094L870.882 473.04C871.95 471.614 874.067 471.245 875.607 472.207L888.768 480.381C890.325 481.343 890.728 483.283 889.678 484.709C888.628 486.136 886.51 486.505 884.952 485.543L874.61 479.115L867.592 488.588C866.927 489.486 865.86 489.951 864.775 489.951V489.967Z" fill="white" fill-opacity="0.1"/>
<path d="M546.34 652.486C545.728 652.486 545.098 652.341 544.538 652.005C542.945 651.091 542.455 649.167 543.453 647.709L559.5 624.194C560.498 622.736 562.598 622.287 564.191 623.2L589.863 637.899C591.456 638.813 591.946 640.736 590.948 642.195C589.951 643.653 587.851 644.102 586.258 643.189L563.473 630.141L549.228 651.011C548.58 651.957 547.478 652.486 546.34 652.486Z" fill="white" fill-opacity="0.1"/>
<path d="M748.066 303.725C747.296 303.725 746.526 303.485 745.878 302.988L709.828 275.306C709.128 274.777 708.708 274.007 708.621 273.19C708.533 272.372 708.831 271.539 709.408 270.914L739.631 237.894C740.838 236.579 742.991 236.403 744.426 237.509C745.861 238.615 746.053 240.587 744.846 241.901L716.811 272.533L750.254 298.211C751.689 299.317 751.881 301.289 750.674 302.603C750.009 303.34 749.028 303.725 748.066 303.725Z" fill="white" fill-opacity="0.1"/>
<path d="M633.964 866.794C633.964 866.794 633.841 866.794 633.771 866.794C631.899 866.698 630.446 865.223 630.551 863.508L631.321 850.749C631.426 849.034 633.036 847.719 634.909 847.799L648.839 848.505C650.712 848.601 652.164 850.076 652.059 851.791C651.954 853.506 650.344 854.836 648.471 854.74L637.936 854.211L637.359 863.861C637.254 865.528 635.749 866.81 633.964 866.81V866.794Z" fill="white" fill-opacity="0.1"/>
</svg>
