<svg width="13" height="13" viewBox="0 0 13 13" fill="none" xmlns="http://www.w3.org/2000/svg">
<path d="M12.727 11.4147C12.8135 11.5009 12.8822 11.6034 12.929 11.7163C12.9759 11.8292 13 11.9502 13 12.0724C13 12.1946 12.9759 12.3156 12.929 12.4285C12.8822 12.5413 12.8135 12.6438 12.727 12.7301C12.5518 12.903 12.3156 13 12.0695 13C11.8234 13 11.5871 12.903 11.412 12.7301L6.5 7.81666L1.58803 12.7301C1.41287 12.903 1.17665 13 0.930525 13C0.684402 13 0.448184 12.903 0.273018 12.7301C0.18648 12.6438 0.117818 12.5413 0.0709674 12.4285C0.0241169 12.3156 0 12.1946 0 12.0724C0 11.9502 0.0241169 11.8292 0.0709674 11.7163C0.117818 11.6034 0.18648 11.5009 0.273018 11.4147L5.18499 6.50126L0.273018 1.58783C0.0986358 1.4134 0.00066895 1.17682 0.00066895 0.930131C0.00066895 0.807985 0.0247205 0.687034 0.0714501 0.574186C0.11818 0.461337 0.186672 0.3588 0.273018 0.272429C0.359363 0.186059 0.461869 0.117546 0.574685 0.0708021C0.6875 0.0240587 0.808415 0 0.930525 0C1.17714 0 1.41365 0.0979958 1.58803 0.272429L6.5 5.18585L11.412 0.272429C11.5863 0.0979958 11.8229 0 12.0695 0C12.3161 0 12.5526 0.0979958 12.727 0.272429C12.9014 0.446863 12.9993 0.683445 12.9993 0.930131C12.9993 1.17682 12.9014 1.4134 12.727 1.58783L7.81501 6.50126L12.727 11.4147Z" fill="#54575C"/>
</svg>
