<svg width="348" height="48" viewBox="0 0 348 48" fill="none" xmlns="http://www.w3.org/2000/svg">
<path d="M37.843 17.8287C37.843 17.8287 33.3329 14.3811 32.4115 12.8505C31.5125 11.357 30.6357 5.87356 30.6357 5.87356C25.9101 -1.95785 14.1036 -1.95785 9.37799 5.87356C9.37799 5.87356 8.41207 11.5131 7.51302 13.0065C6.59167 14.5371 2.16329 17.8213 2.16329 17.8213C-2.56231 25.6527 3.34469 35.4457 12.7884 35.4457C12.7884 35.4457 18.1605 33.4692 19.9957 33.4692C21.831 33.4692 27.203 35.4457 27.203 35.4457C36.6467 35.4457 42.5537 25.6527 37.8281 17.8213L37.843 17.8287ZM20.0031 29.3678C14.5197 29.3678 10.069 24.9171 10.069 19.4336C10.069 13.9502 14.5197 9.49948 20.0031 9.49948C25.4866 9.49948 29.9373 13.9502 29.9373 19.4336C29.9373 24.9171 25.4866 29.3678 20.0031 29.3678Z" fill="#F1F5F9"/>
<path d="M37.8494 17.8324C37.8494 17.8324 33.3392 14.3848 32.4179 12.8542C31.5188 11.3607 30.6421 5.87728 30.6421 5.87728C25.9165 -1.95413 14.1099 -1.95413 9.38434 5.87728C9.38434 5.87728 8.41842 11.5168 7.51936 13.0102C6.59802 14.5409 2.16964 17.825 2.16964 17.825C-2.55596 25.6564 3.35104 35.4494 12.7948 35.4494C12.7948 35.4494 18.1668 33.473 20.0021 33.473C21.8373 33.473 27.2093 35.4494 27.2093 35.4494C36.6531 35.4494 42.5601 25.6564 37.8345 17.825L37.8494 17.8324ZM20.0095 29.3715C14.526 29.3715 10.0753 24.9208 10.0753 19.4374C10.0753 13.9539 14.526 9.5032 20.0095 9.5032C25.493 9.5032 29.9436 13.9539 29.9436 19.4374C29.9436 24.9208 25.493 29.3715 20.0095 29.3715Z" fill="#F1F5F9"/>
<g filter="url(#filter0_dd_120_99)">
<path d="M61.8664 13.2412C61.8664 13.2412 63.8 10.2185 69.313 10.2185C69.313 10.2185 73.0555 10.1801 75.1138 13.3996C77.2154 10.0169 82.8483 10.2185 82.8483 10.2185C82.8483 10.2185 90.3381 10.1801 90.3381 17.2188V26.7622H92.2717V30.3415H85.8951V17.4539C85.8951 12.6799 76.0638 13.2796 76.0638 17.2572V26.767H78.0358V30.3463H71.616V17.4587C71.616 12.6079 61.8664 13.3228 61.8664 17.4587V26.767H63.8384V30.3463H57.4234V15.3476C57.4234 14.0329 55.4897 14.0761 55.4897 14.0761V10.4584C57.836 9.50355 61.8664 9.74345 61.8664 12.6847V13.2412Z" fill="#F1F5F9"/>
<path d="M114.698 21.9545H100.299C100.38 24.8189 102.89 26.767 105.85 26.767C108.811 26.767 110.168 25.7738 111.939 24.7374L114.04 27.8801C111.449 29.5498 108.076 30.7445 104.742 30.7445C96.0621 30.7445 95.8941 21.9929 95.8941 21.9929C95.8941 21.9929 94.3732 10.1801 105.932 10.1801C116.713 10.1801 114.698 21.9497 114.698 21.9545ZM110.543 18.8118C110.543 18.8118 111.286 14.1193 106.1 14.1193C100.918 14.1193 100.217 18.8118 100.217 18.8118H110.543Z" fill="#F1F5F9"/>
<path d="M120.374 6.99897H118.402V3.37643H124.822V10.4584H128.77V14.0761H124.822V25.5723C124.822 26.9253 126.794 26.767 126.794 26.767V30.3463C124.491 31.2628 120.374 30.7446 120.374 27.6019V6.99897Z" fill="#F1F5F9"/>
<path d="M132.307 23.5474V17.2236C132.35 10.2232 139.302 10.1848 139.302 10.1848C143.952 10.1848 146.091 11.7346 146.869 12.6127V10.4631H153.121V14.0809H151.312V25.4139C151.312 25.9705 151.437 26.7669 152.914 26.7669V30.3463C150.654 31.4211 146.869 31.0228 146.869 27.6402C146.869 28.1968 143.822 30.7397 139.379 30.7397C139.379 30.7493 132.345 30.5478 132.307 23.5474ZM136.745 18.3751V22.7126C136.745 28.4799 146.869 27.8033 146.869 22.7126V18.3751C146.869 13.2412 136.745 12.1281 136.745 18.3751Z" fill="#F1F5F9"/>
<path d="M182.087 23.5474V17.2236C182.13 10.2232 189.083 10.1848 189.083 10.1848C193.732 10.1848 195.872 11.7346 196.649 12.6127V10.4631H202.901V14.0809H201.092V25.4139C201.092 25.9705 201.217 26.7669 202.695 26.7669V30.3463C200.435 31.4211 196.649 31.0228 196.649 27.6402C196.649 28.1968 193.602 30.7397 189.159 30.7397C189.164 30.7493 182.13 30.5478 182.087 23.5474ZM186.53 18.3751V22.7126C186.53 28.4799 196.654 27.8033 196.654 22.7126V18.3751C196.649 13.2412 186.53 12.1281 186.53 18.3751Z" fill="#F1F5F9"/>
<path d="M213.476 13.2412C213.476 13.2412 215.41 10.2185 220.923 10.2185C220.923 10.2185 224.665 10.1801 226.724 13.3996C228.825 10.0169 234.458 10.2185 234.458 10.2185C234.458 10.2185 241.948 10.1801 241.948 17.2188V26.7622H243.881V30.3415H237.505V17.4539C237.505 12.6799 227.669 13.2796 227.669 17.2572V26.767H229.641V30.3463H223.221V17.4587C223.221 12.6079 213.471 13.3228 213.471 17.4587V26.767H215.443V30.3463H209.023V15.3476C209.023 14.0329 207.09 14.0761 207.09 14.0761V10.4584C209.436 9.50355 213.466 9.74345 213.466 12.6847V13.2412H213.476Z" fill="#F1F5F9"/>
<path d="M266.302 21.9545H251.903C251.985 24.8189 254.494 26.767 257.455 26.767C260.415 26.767 261.773 25.7738 263.543 24.7374L265.645 27.8801C263.054 29.5498 259.681 30.7445 256.346 30.7445C247.667 30.7445 247.504 21.9929 247.504 21.9929C247.504 21.9929 245.983 10.1801 257.541 10.1801C268.318 10.1801 266.302 21.9497 266.302 21.9545ZM262.147 18.8118C262.147 18.8118 262.891 14.1193 257.704 14.1193C252.522 14.1193 251.822 18.8118 251.822 18.8118H262.147Z" fill="#F1F5F9"/>
<path d="M276.382 12.7662C277.208 11.8498 279.756 10.2184 283.292 10.2184C283.292 10.2184 290.081 10.2952 290.081 17.3004V26.7669H292.096V30.3463H285.595L285.638 17.5355C285.638 12.4831 276.382 13.5195 276.382 17.5355V26.7621H278.316V30.3415H271.939V5.40597C271.939 4.0913 270.006 4.13449 270.006 4.13449V0.51195C272.477 -0.481248 276.382 -0.241348 276.382 3.25644V12.7662Z" fill="#F1F5F9"/>
<path d="M316.614 10.4584V25.4571C316.657 26.0137 316.902 26.7286 318.385 26.7286V30.3463C315.794 31.1812 312.214 31.0612 312.214 27.4003C312.214 27.4003 310.444 30.5814 305.425 30.5814C305.425 30.5814 297.979 30.5431 297.979 23.4611V14.0329H296.045V10.4536H302.465V23.3028C302.465 28.1152 312.176 27.597 312.176 23.3028V14.0377H310.242L310.199 10.4584H316.614Z" fill="#F1F5F9"/>
<path d="M335.912 30.7446C331.057 30.7446 328.634 28.12 328.634 27.5634C328.634 30.2695 325.755 31.4211 322.914 30.3463V26.7286C324.397 26.7286 324.642 25.7738 324.685 25.2172V4.1345H322.713V0.511963H329.133V12.6846C332.875 8.30881 343.037 9.54192 343.037 17.2572V23.701C343.033 30.7062 335.912 30.7446 335.912 30.7446ZM338.503 17.4587C338.503 12.4879 329.123 13.4427 329.123 17.4587V23.2644C329.123 27.3235 338.503 28.4367 338.503 23.2644V17.4587Z" fill="#F1F5F9"/>
<path d="M171.958 13.3755C171.958 12.819 169.501 10.1944 164.583 10.1944C164.583 10.1944 157.376 10.2328 157.376 17.2332V23.677C157.376 31.3923 167.668 32.6254 171.459 28.2495V31.3539C171.459 32.9756 171.142 34.2087 170.24 35.058C169.338 35.9072 168.158 36.3343 166.694 36.3343C165.442 36.3343 164.367 36.0656 163.465 35.5282C162.563 34.9908 161.973 34.2903 161.7 33.4171H158.106L157.4 33.4314V33.5898C157.631 35.5618 158.595 37.126 160.294 38.2727C161.992 39.4242 164.127 40 166.699 40C168.628 40 170.283 39.6257 171.675 38.882C173.061 38.1383 174.122 37.1116 174.861 35.8065C175.595 34.5014 175.964 33.014 175.964 31.3491V15.7218C176.007 15.1652 176.257 14.2104 177.754 14.2104V10.5927C174.88 9.5179 171.963 10.6742 171.958 13.3755ZM161.959 23.4803V17.6698C161.959 12.4975 171.459 13.6106 171.459 17.6698V23.4803C171.459 27.4962 161.959 28.4511 161.959 23.4803Z" fill="#F1F5F9"/>
</g>
<defs>
<filter id="filter0_dd_120_99" x="51.4897" y="0.00363159" width="295.547" height="47.9964" filterUnits="userSpaceOnUse" color-interpolation-filters="sRGB">
<feFlood flood-opacity="0" result="BackgroundImageFix"/>
<feColorMatrix in="SourceAlpha" type="matrix" values="0 0 0 0 0 0 0 0 0 0 0 0 0 0 0 0 0 0 127 0" result="hardAlpha"/>
<feOffset dy="4"/>
<feGaussianBlur stdDeviation="2"/>
<feComposite in2="hardAlpha" operator="out"/>
<feColorMatrix type="matrix" values="0 0 0 0 0 0 0 0 0 0 0 0 0 0 0 0 0 0 0.25 0"/>
<feBlend mode="normal" in2="BackgroundImageFix" result="effect1_dropShadow_120_99"/>
<feColorMatrix in="SourceAlpha" type="matrix" values="0 0 0 0 0 0 0 0 0 0 0 0 0 0 0 0 0 0 127 0" result="hardAlpha"/>
<feOffset dy="4"/>
<feGaussianBlur stdDeviation="2"/>
<feComposite in2="hardAlpha" operator="out"/>
<feColorMatrix type="matrix" values="0 0 0 0 0 0 0 0 0 0 0 0 0 0 0 0 0 0 0.25 0"/>
<feBlend mode="normal" in2="effect1_dropShadow_120_99" result="effect2_dropShadow_120_99"/>
<feBlend mode="normal" in="SourceGraphic" in2="effect2_dropShadow_120_99" result="shape"/>
</filter>
</defs>
</svg>
