<svg width="40" height="36" viewBox="0 0 40 36" fill="none" xmlns="http://www.w3.org/2000/svg">
<path d="M37.843 17.8287C37.843 17.8287 33.3329 14.3811 32.4115 12.8505C31.5125 11.357 30.6357 5.87356 30.6357 5.87356C25.9101 -1.95785 14.1036 -1.95785 9.37799 5.87356C9.37799 5.87356 8.41207 11.5131 7.51302 13.0065C6.59167 14.5371 2.16329 17.8213 2.16329 17.8213C-2.56231 25.6527 3.34469 35.4457 12.7884 35.4457C12.7884 35.4457 18.1605 33.4692 19.9957 33.4692C21.831 33.4692 27.203 35.4457 27.203 35.4457C36.6467 35.4457 42.5537 25.6527 37.8281 17.8213L37.843 17.8287ZM20.0031 29.3678C14.5197 29.3678 10.069 24.9171 10.069 19.4336C10.069 13.9502 14.5197 9.49948 20.0031 9.49948C25.4866 9.49948 29.9373 13.9502 29.9373 19.4336C29.9373 24.9171 25.4866 29.3678 20.0031 29.3678Z" fill="#F1F5F9"/>
<path d="M37.8494 17.8324C37.8494 17.8324 33.3392 14.3848 32.4179 12.8542C31.5188 11.3607 30.6421 5.87728 30.6421 5.87728C25.9165 -1.95413 14.1099 -1.95413 9.38434 5.87728C9.38434 5.87728 8.41842 11.5168 7.51936 13.0102C6.59802 14.5409 2.16964 17.825 2.16964 17.825C-2.55596 25.6564 3.35104 35.4494 12.7948 35.4494C12.7948 35.4494 18.1668 33.473 20.0021 33.473C21.8373 33.473 27.2093 35.4494 27.2093 35.4494C36.6531 35.4494 42.5601 25.6564 37.8345 17.825L37.8494 17.8324ZM20.0095 29.3715C14.526 29.3715 10.0753 24.9208 10.0753 19.4374C10.0753 13.9539 14.526 9.5032 20.0095 9.5032C25.493 9.5032 29.9436 13.9539 29.9436 19.4374C29.9436 24.9208 25.493 29.3715 20.0095 29.3715Z" fill="#F1F5F9"/>
</svg>
