<svg width="52" height="50" viewBox="0 0 52 50" fill="none" xmlns="http://www.w3.org/2000/svg">
<path d="M49.6605 24.0288C49.6605 24.0288 43.872 19.8498 42.7191 17.8206C41.5662 15.7915 40.8804 8.64422 40.8804 8.64422C34.2564 -2.88141 17.7234 -2.88141 11.1263 8.64422C11.1263 8.64422 10.4405 15.7915 9.28763 17.8206C8.13472 19.8498 2.32224 24.0288 2.32224 24.0288C-4.27482 35.5786 3.96626 50 17.1873 50C17.1873 50 23.6616 47.1073 25.9944 47.1073C28.3272 47.1073 34.8014 50 34.8014 50C48.0225 50 56.2905 35.5786 49.6665 24.0288H49.6605ZM25.9884 41.2433C18.5079 41.2433 12.4469 35.1347 12.4469 27.5889C12.4469 20.043 18.5049 13.9345 25.9884 13.9345C33.4718 13.9345 39.5299 20.043 39.5299 27.5889C39.5299 35.1347 33.4718 41.2433 25.9884 41.2433Z" fill="#1AB3F3"/>
</svg>
