<svg width="78" height="70" viewBox="0 0 78 70" fill="none" xmlns="http://www.w3.org/2000/svg">
<path d="M69.9821 17.8906C70.0317 18.6368 70.0317 19.3831 70.0317 20.1293C70.0317 42.888 53.9468 69.1114 24.5482 69.1114C15.4911 69.1114 7.07743 66.2864 0 61.3831C1.28685 61.5429 2.52403 61.5962 3.86039 61.5962C11.3336 61.5962 18.2132 58.878 23.7068 54.241C16.6789 54.081 10.7893 49.1242 8.76007 42.3018C9.75 42.4616 10.7398 42.5683 11.7792 42.5683C13.2144 42.5683 14.6498 42.355 15.986 41.9821C8.6612 40.3829 3.16738 33.4541 3.16738 25.0861V24.873C5.29547 26.1522 7.77029 26.9516 10.3932 27.0581C6.08735 23.9667 3.2664 18.6901 3.2664 12.7205C3.2664 9.52263 4.05813 6.59116 5.444 4.03277C13.3133 14.4794 25.1421 21.3017 38.4059 22.048C38.1585 20.7688 38.0099 19.4364 38.0099 18.1039C38.0099 8.61651 45.1369 0.888184 53.996 0.888184C58.5987 0.888184 62.756 2.96686 65.6762 6.32472C69.289 5.57857 72.7534 4.13941 75.8221 2.16738C74.6341 6.16493 72.1101 9.52279 68.7942 11.6546C72.0112 11.2817 75.1292 10.3221 77.9997 8.98975C75.8224 12.4008 73.1002 15.4387 69.9821 17.8906Z" fill="white"/>
</svg>
